<svg width="445" height="340" viewBox="0 0 445 340" fill="none" xmlns="http://www.w3.org/2000/svg">
<path d="M441.49 88.3878L440.119 83.5082C428.605 42.4611 396.67 10.7266 356.262 2.25599C351.073 1.15347 345.811 0.452783 340.52 0.159824C302.369 -1.97071 263.649 17.3415 241.122 49.5915C227.904 68.4914 219.398 92.288 200.43 105.002C175.781 121.548 143.529 113.284 115.588 104.521C87.6465 95.7587 55.3271 87.5802 30.7616 104.229C15.3706 114.659 6.48024 133.129 2.58652 151.754C-7.72429 201.082 13.7496 253.762 49.9628 287.06C86.176 320.358 135.006 336.045 183.385 339.343C251.149 343.948 321.921 324.413 373.542 278.159C425.163 231.906 454.792 157.578 441.49 88.3878Z" fill="#F9A474" fill-opacity="0.3"/>
</svg>
